# xmcd CD database file
#
# Track frame offsets:
#	150
#	18204
#	35471
#	53183
#	68608
#	94290
#	115407
#	129261
#	150356
#	172150
#
# Disc length: 2600 seconds
#
# Revision: 2
# Processed by: cddbd v1.5.2PL0 Copyright (c) Steve Scherf et al.
# Submitted via: CDex 1.70beta3
#
DISCID=7a0a260a
DTITLE=inoue yousui - ayasii yolu ow matte
DYEAR=1981
DGENRE=Folk
TTITLE0=ジェラシー
TTITLE1=海はどうだ
TTITLE2=風のエレジー
TTITLE3=My House
TTITLE4=もうじき夏がくる
TTITLE5=星空へHappy game
TTITLE6=天使 in マガジン
TTITLE7=Yellow Night
TTITLE8=Love is You
TTITLE9=マリーナ・デル・レイ〜ナイト・メロディー
EXTD=YEAR: 1981
EXTT0=
EXTT1=
EXTT2=
EXTT3=
EXTT4=
EXTT5=
EXTT6=
EXTT7=
EXTT8=
EXTT9=
PLAYORDER=
